<svg xmlns="http://www.w3.org/2000/svg" width="80" height="172" fill="none" viewBox="0 0 80 172">
    <path fill="url(#paint0_linear)" d="M18 94H62V172H18z"/>
    <path fill="url(#paint1_linear)" d="M37.52 13.941L18.274 91.755C18.092 92.489 18 93.243 18 94h44c0-.757-.092-1.511-.274-2.246L42.48 13.94C42.198 12.802 41.175 12 40 12s-2.198.801-2.48 1.941z"/>
    <mask id="atd5oj4r7a" width="44" height="82" x="18" y="12" maskUnits="userSpaceOnUse">
        <path fill="url(#paint2_linear)" d="M37.52 13.941L18.274 91.755C18.092 92.489 18 93.243 18 94h44c0-.757-.092-1.511-.274-2.246L42.48 13.94C42.198 12.802 41.175 12 40 12s-2.198.801-2.48 1.941z"/>
    </mask>
    <g mask="url(#atd5oj4r7a)">
        <path fill="#181818" d="M30 7h20v19H30V7z"/>
        <path fill="url(#paint3_linear)" d="M30 7h20v19H30V7z"/>
    </g>
    <defs>
        <linearGradient id="paint0_linear" x1="18" x2="62" y1="158.409" y2="158.409" gradientUnits="userSpaceOnUse">
            <stop stop-color="#2E2E2E"/>
            <stop offset=".047" stop-color="#393939"/>
            <stop offset=".146" stop-color="#212121"/>
            <stop offset=".573" stop-color="#5A5A5A"/>
            <stop offset=".906" stop-color="#2C2C2C"/>
            <stop offset="1" stop-color="#363636"/>
        </linearGradient>
        <linearGradient id="paint1_linear" x1="18" x2="62" y1="62.182" y2="62.182" gradientUnits="userSpaceOnUse">
            <stop stop-color="#DBDBDB"/>
            <stop offset=".064" stop-color="#EBEBEB"/>
            <stop offset=".178" stop-color="#DADADA"/>
            <stop offset=".488" stop-color="#F6F6F6"/>
            <stop offset=".757" stop-color="#EFEFEF"/>
            <stop offset="1" stop-color="#DDD"/>
        </linearGradient>
        <linearGradient id="paint2_linear" x1="18" x2="62" y1="62.182" y2="62.182" gradientUnits="userSpaceOnUse">
            <stop stop-color="#DBDBDB"/>
            <stop offset=".064" stop-color="#EBEBEB"/>
            <stop offset=".178" stop-color="#DADADA"/>
            <stop offset=".488" stop-color="#F6F6F6"/>
            <stop offset=".757" stop-color="#EFEFEF"/>
            <stop offset="1" stop-color="#DDD"/>
        </linearGradient>
        <linearGradient id="paint3_linear" x1="30" x2="50" y1="17.556" y2="17.556" gradientUnits="userSpaceOnUse">
            <stop stop-color="#1D1D1D"/>
            <stop offset=".497" stop-color="#585858"/>
            <stop offset="1" stop-color="#313131"/>
        </linearGradient>
    </defs>
</svg>
