<svg xmlns="http://www.w3.org/2000/svg" width="80" height="173" fill="none" viewBox="0 0 80 173">
    <path fill="url(#paint0_linear)" d="M51.85 47.794l-1.753-8.99C48.178 30.307 45.007 20.99 40 12c-5.007 8.99-8.178 18.306-10.097 26.805l-1.753 8.99c-1.168 7.845-1.252 14.22-1.085 17.815.418 8.335 1.92 16.59 3.505 24.762.584 3.023 1.252 6.047 2.754 8.499 1.753 2.697 4.34 4.331 6.676 6.129 2.337-1.798 4.923-3.432 6.676-6.13 1.502-2.45 2.17-5.475 2.754-8.498 1.585-8.172 3.087-16.427 3.505-24.762.166-3.596.083-9.97-1.085-17.816z"/>
    <path fill="url(#paint1_linear)" d="M55.9 168.814c-.1-.3-.1-.5-.3-.8l-2-3.7-1.2-2.2c-.2-.5-.3-1-.3-1.5s.1-1.1.3-1.5l2.4-4.2c.1-.3.2-.7.3-1 0-.2.1-.4.1-.7 0-.5-.1-1.1-.4-1.5l-2.6-4.9c-.2-.5-.4-1-.4-1.5v-.2c.1-.4.2-.8.4-1.1l2.3-4.4.8-1.5v-1.3-3.8c.1-5.7 0-5.3-.1-16.1-.2-21-.6-24.3-1.5-32.2-.1-1-.2-1.6-.3-2-.1-.2-.3-.5-.6-.8-2.3-2.1-5.4-4.1-12.8-3.9-7.4-.1-10.5 1.9-12.8 3.9-.3.3-.5.6-.6.8-.1.4-.2 1.1-.3 2-1 7.9-1.4 9.2-1.5 32.2-.1 10.8-.2 10.4-.1 16.1v5.1l.8 1.5 2.3 4.4c.2.3.3.7.4 1.1v.2c0 .5-.1 1-.4 1.5l-2.6 4.9c-.2.5-.4 1-.4 1.5 0 .2 0 .4.1.7 0 .4.1.7.3 1l2.4 4.2c.2.5.3 1 .3 1.5s-.1 1.1-.3 1.5l-1.2 2.2-2 3.7c-.1.3-.2.5-.3.8-.1.3-.1.5-.1.8 0 1.3.6 2.5 1.5 2.5h29c.9 0 1.5-1.2 1.5-2.5 0-.3 0-.6-.1-.8z"/>
    <mask id="ml36yyb4ba" width="32" height="95" x="24" y="78" maskUnits="userSpaceOnUse">
        <path fill="url(#paint2_linear)" d="M55.9 168.814c-.1-.3-.1-.5-.3-.8l-2-3.7-1.2-2.2c-.2-.5-.3-1-.3-1.5s.1-1.1.3-1.5l2.4-4.2c.1-.3.2-.7.3-1 0-.2.1-.4.1-.7 0-.5-.1-1.1-.4-1.5l-2.6-4.9c-.2-.5-.4-1-.4-1.5v-.2c.1-.4.2-.8.4-1.1l2.3-4.4.8-1.5v-1.3-3.8c.1-5.7 0-5.3-.1-16.1-.2-21-.6-24.3-1.5-32.2-.1-1-.2-1.6-.3-2-.1-.2-.3-.5-.6-.8-2.3-2.1-5.4-4.1-12.8-3.9-7.4-.1-10.5 1.9-12.8 3.9-.3.3-.5.6-.6.8-.1.4-.2 1.1-.3 2-1 7.9-1.4 9.2-1.5 32.2-.1 10.8-.2 10.4-.1 16.1v5.1l.8 1.5 2.3 4.4c.2.3.3.7.4 1.1v.2c0 .5-.1 1-.4 1.5l-2.6 4.9c-.2.5-.4 1-.4 1.5 0 .2 0 .4.1.7 0 .4.1.7.3 1l2.4 4.2c.2.5.3 1 .3 1.5s-.1 1.1-.3 1.5l-1.2 2.2-2 3.7c-.1.3-.2.5-.3.8-.1.3-.1.5-.1.8 0 1.3.6 2.5 1.5 2.5h29c.9 0 1.5-1.2 1.5-2.5 0-.3 0-.6-.1-.8z"/>
    </mask>
    <g mask="url(#ml36yyb4ba)" opacity=".4">
        <g clip-path="url(#clip0)" opacity=".2">
            <path fill="url(#paint3_linear)" d="M23.695 11.036c-1.135 4.97-2.27 120.653-1.702 129.626 0 .415.142.691.284 1.105l2.836 5.108c.425.69.425 1.932 0 2.622l-2.411 4.28c-.425.828-.425 1.933 0 2.761l2.127 3.727c.426.828.426 1.933 0 2.761l-2.836 5.384c-.71 1.518-.142 3.589.993 3.589h34.178c1.276 0 1.843-2.209.993-3.727l-2.979-5.384c-.425-.828-.425-2.071 0-2.761l2.128-3.865c.425-.828.425-1.933 0-2.761l-2.411-4.28c-.426-.828-.426-1.932 0-2.622l2.836-5.108c.142-.276.284-.69.284-1.105.567-9.111-.284-124.794-1.844-129.626-1.276-3.727-31.625-3.59-32.476.276z"/>
            <path fill="url(#paint4_linear)" d="M56.739 154.882c-.71 0-2.695-5.798-3.688-6.212-2.41-1.104-24.109-.69-25.81 0-1.277.552-4.113 3.727-4.68 5.798-.142 2.071 11.061.828 34.178.414z"/>
            <path fill="url(#paint5_linear)" d="M25.68 168.963c1.702.276 26.946-.414 31.484-.276-.142-.828-2.695-6.074-3.687-6.488-2.411-1.105-24.677-.69-26.237 0-1.276.552-3.403 2.347-3.97 4.555-.426 1.933 1.276 2.071 2.41 2.209z"/>
            <path fill="url(#paint6_linear)" d="M57.59 140.939c-3.688 2.209-26.237 2.623-35.03.553 2.127 3.727 5.106 6.35 7.233 6.488 5.672.138 19.854-.138 23.258.276 1.418-.276 2.27-4.418 4.538-7.317z" opacity=".4"/>
            <path fill="url(#paint7_linear)" d="M55.887 155.987c-.709-.967-1.843-.829-2.836-.829-8.51.553-20.706 1.243-30.066.691-2.41-.138 4.539 4.555 6.666 4.555 5.814.138 20.564-.552 21.982-.276.425.138.85.138 1.418 0 1.418-.276 2.269-2.209 2.836-4.141z" opacity=".4"/>
            <g fill="#fff" opacity=".7">
                <g opacity=".7">
                    <path d="M36.458 152.812c-5.247 0-10.21.138-14.89.138-.143 1.104-.285 2.07-.426 3.175 4.821 0 10.069.138 15.458.138 7.942 0 14.89-.138 21.414-.276.142-.967.284-2.071.568-2.899-6.382-.138-14.04-.276-22.124-.276z" opacity=".016"/>
                    <path d="M36.458 152.949c-5.247 0-10.21.138-14.89.138-.143.966-.285 2.07-.426 3.037 4.821 0 9.927.138 15.458.138 7.942 0 14.89-.138 21.556-.276.142-.967.284-1.933.567-2.899-6.381-.138-14.181-.138-22.265-.138z" opacity=".033"/>
                    <path d="M36.458 152.949c-5.247 0-10.353.138-14.89.138-.143.966-.285 2.07-.426 3.037 4.821 0 9.927.138 15.458.138 7.942 0 15.032-.138 21.556-.276.142-.967.284-1.933.567-2.761-6.381-.138-14.181-.276-22.265-.276z" opacity=".049"/>
                    <path d="M36.458 152.949c-5.247 0-10.353.138-14.89.138-.143.966-.285 1.932-.426 2.899 4.821 0 9.927.138 15.458.138 7.942 0 15.032-.138 21.556-.276.142-.967.284-1.795.567-2.761-6.381 0-14.181-.138-22.265-.138z" opacity=".066"/>
                    <path d="M36.458 152.949c-5.247 0-10.353.138-14.89.138-.143.966-.285 1.932-.426 2.899 4.821 0 9.927.138 15.458.138 7.942 0 15.032-.138 21.556-.276.142-.967.284-1.795.567-2.623-6.381-.138-14.181-.276-22.265-.276z" opacity=".082"/>
                    <path d="M36.458 153.088c-5.247 0-10.353.138-14.89.138-.143.966-.285 1.932-.426 2.899 4.821 0 9.927.138 15.458.138 7.942 0 15.032-.138 21.556-.276.142-.967.284-1.795.426-2.623-6.24-.276-14.04-.276-22.124-.276z" opacity=".098"/>
                    <path d="M36.458 153.088c-5.39 0-10.353.138-14.89.138-.143.966-.285 1.794-.426 2.761 4.68 0 9.927.138 15.458.138 8.083 0 15.174-.138 21.556-.276.142-.829.284-1.795.426-2.485-6.24-.276-14.04-.276-22.124-.276z" opacity=".115"/>
                    <path d="M36.458 153.088c-5.39 0-10.353.138-14.89.138-.143.966-.285 1.794-.426 2.761 4.68 0 9.927.138 15.458.138 8.083 0 15.174-.138 21.556-.276l.426-2.485c-6.24-.138-13.899-.276-22.124-.276z" opacity=".131"/>
                    <path d="M36.458 153.088c-5.39 0-10.353.138-14.89.138-.143.966-.285 1.794-.426 2.623 4.68 0 9.927.138 15.458.138 8.083 0 15.174-.138 21.556-.276.142-.829.284-1.657.426-2.347-6.099-.138-13.899-.276-22.124-.276z" opacity=".147"/>
                    <path d="M36.458 153.088c-5.39 0-10.353.138-14.89.138-.143.828-.285 1.656-.426 2.623 4.68 0 9.927.138 15.458.138 8.083 0 15.316-.138 21.556-.276.142-.829.284-1.657.426-2.347-6.099-.138-13.899-.276-22.124-.276z" opacity=".164"/>
                    <path d="M36.458 153.088c-5.39 0-10.353.138-14.89.138-.143.828-.285 1.656-.426 2.485 4.68 0 9.927.138 15.316.138 8.084 0 15.316-.138 21.556-.277.142-.828.284-1.518.426-2.208-5.957-.138-13.757-.276-21.982-.276z" opacity=".18"/>
                    <path d="M36.458 153.226c-5.389.138-10.352.138-15.032.138L21 155.848c4.68 0 9.785.139 15.316.139 8.226 0 15.459-.139 21.557-.277.142-.69.283-1.518.425-2.208-5.814-.276-13.614-.276-21.84-.276z" opacity=".197"/>
                    <path d="M36.458 153.226c-5.389 0-10.352 0-15.032.138-.142.828-.284 1.656-.426 2.346 4.68.138 9.785.138 15.316.138 8.226 0 15.459-.138 21.557-.276.142-.69.283-1.518.425-2.07-5.814-.138-13.473-.276-21.84-.276z" opacity=".213"/>
                    <path d="M36.458 153.226c-5.389 0-10.352 0-15.032.138-.142.828-.284 1.518-.426 2.346 4.68.138 9.785.138 15.316.138 8.226 0 15.6-.138 21.557-.276.142-.69.283-1.38.283-2.07-5.53-.138-13.33-.276-21.698-.276z" opacity=".23"/>
                    <path d="M36.458 153.226c-5.39 0-10.495 0-15.033.138-.142.69-.283 1.518-.283 2.208 4.68.138 9.785.138 15.316.138 8.367 0 15.6-.138 21.556-.276.142-.69.284-1.38.284-1.932-5.673-.138-13.473-.276-21.84-.276z" opacity=".246"/>
                    <path d="M36.458 153.226c-5.39 0-10.495 0-15.033.138-.142.69-.283 1.518-.283 2.208 4.68.138 9.785.138 15.316.138 8.367 0 15.742-.138 21.556-.276.142-.69.284-1.38.284-1.932-5.673-.138-13.473-.276-21.84-.276z" opacity=".262"/>
                    <path d="M36.458 153.364c-5.39 0-10.495 0-15.033.138-.142.69-.283 1.38-.283 2.209 4.538.138 9.785.138 15.316.138 8.367 0 15.742-.138 21.556-.276.142-.553.284-1.243.284-1.795-5.53-.276-13.33-.414-21.84-.414z" opacity=".279"/>
                    <path d="M36.458 153.364c-5.39 0-10.495.138-15.033.138-.142.69-.283 1.38-.283 2.071 4.538.138 9.785.138 15.316.138 8.367 0 15.884-.138 21.556-.277.142-.552.142-1.242.284-1.794-5.53-.138-13.33-.276-21.84-.276z" opacity=".295"/>
                    <path d="M36.458 153.364c-5.39 0-10.495.138-15.033.138-.142.69-.283 1.38-.283 2.071 4.538.138 9.785.138 15.316.138 8.51 0 15.884-.138 21.556-.277.142-.552.142-1.104.284-1.656-5.39-.276-13.33-.414-21.84-.414z" opacity=".311"/>
                    <path d="M36.458 153.364c-5.53 0-10.495 0-15.033.138-.142.69-.283 1.38-.283 1.932 4.538.139 9.643.139 15.316.139 8.51 0 16.025-.139 21.556-.415.142-.552.142-1.104.284-1.518-5.39-.138-13.19-.276-21.84-.276z" opacity=".328"/>
                    <path d="M36.458 153.502c-3.829 0-7.516 0-10.92.138-1.418 0-2.694 0-3.97.138-.143.69-.284 1.242-.284 1.932 1.418 0 2.836 0 4.396.138 3.404 0 7.091 0 10.92.139 8.651 0 16.167-.138 21.556-.415.142-.552.142-1.104.284-1.518-5.389-.414-13.33-.552-21.982-.552z" opacity=".344"/>
                    <path d="M36.458 153.502c-3.97 0-7.8 0-11.204.138-1.276 0-2.552.138-3.829.138-.142.552-.283 1.242-.283 1.794 1.276 0 2.694.138 4.112.138 3.404 0 7.233 0 11.204.139 8.65 0 16.31-.139 21.698-.415.142-.552.142-.966.284-1.38-5.247-.414-13.19-.552-21.982-.552z" opacity=".361"/>
                    <path d="M36.458 153.502c-3.829 0-7.516 0-10.92.138-1.418 0-2.694.138-3.97.138-.143.552-.284 1.104-.284 1.794 1.418 0 2.836.138 4.396.138 3.404 0 7.091 0 10.92.139 8.793 0 16.451-.139 21.698-.415.142-.414.142-.966.284-1.38-5.247-.414-13.331-.552-22.124-.552z" opacity=".377"/>
                    <path d="M36.458 153.502c-5.53 0-10.778.138-15.033.138 0 .552-.142 1.104-.283 1.794 4.396.138 9.643.138 15.316.138 8.793 0 16.593-.138 21.698-.414.142-.414.142-.828.284-1.242-4.964-.276-13.047-.414-21.982-.414z" opacity=".393"/>
                    <path d="M36.458 153.502c-5.53 0-10.778.138-15.033.138 0 .552-.142 1.104-.283 1.656 4.396.138 9.643.138 15.316.138 8.934 0 16.876-.138 21.698-.414 0-.414.142-.828.142-1.104-4.68-.276-12.764-.414-21.84-.414z" opacity=".41"/>
                    <path d="M36.458 153.502c-5.673 0-10.778.138-15.033.138 0 .552-.142 1.104-.283 1.518 4.254.138 9.501.138 15.316.138 9.076 0 17.018-.138 21.698-.414.142-.276.142-.69.142-1.104-4.538 0-12.622-.276-21.84-.276z" opacity=".426"/>
                    <path d="M36.458 153.64c-5.673 0-10.778.138-15.033.138 0 .552-.142.966-.283 1.518 4.254.138 9.501.138 15.316.138 9.36 0 17.302-.138 21.698-.552.142-.276.142-.69.142-.966-4.255-.138-12.338-.276-21.84-.276z" opacity=".443"/>
                    <path d="M36.458 153.64c-5.673 0-10.92.138-15.033.138 0 .552-.142.966-.283 1.38 4.254.138 9.501.276 15.316.276 9.502 0 17.727-.276 21.698-.552 0-.276.142-.552.142-.828-3.97-.276-12.196-.414-21.84-.414z" opacity=".459"/>
                    <path d="M36.458 153.64c-5.673 0-10.92.138-15.033.138 0 .414-.142.966-.283 1.38 4.112.138 9.36.138 15.316.138 9.785 0 18.01-.276 21.698-.552 0-.276.142-.414.142-.69-3.546-.138-11.913-.414-21.84-.414z" opacity=".475"/>
                    <path d="M36.458 153.64c-5.815 0-10.92.138-15.033.276 0 .414-.142.828-.283 1.242 4.112.138 9.36.276 15.316.276 10.21 0 18.72-.276 21.698-.552 0-.138 0-.414.142-.552-2.836-.414-11.487-.69-21.84-.69z" opacity=".492"/>
                    <path d="M36.458 153.64c-5.815 0-11.062.138-15.033.276 0 .414-.142.828-.283 1.242 3.97.138 9.36.276 15.174.276 10.778 0 19.571-.276 21.698-.69v-.276c-1.702-.414-10.636-.828-21.556-.828z" opacity=".508"/>
                    <path d="M36.458 153.778c-5.815 0-11.204.138-15.033.276 0 .414-.142.69-.283 1.104 3.829.138 9.218.276 15.174.276 11.913 0 21.415-.414 21.415-.828.283-.552-9.36-.828-21.273-.828z" opacity=".525"/>
                    <path d="M36.458 153.778c-5.814 0-10.92.138-14.607.276h-.284c0 .414-.142.69-.283 1.104h.567c3.83.138 8.934.276 14.607.276 11.488 0 20.706-.414 20.706-.828.142-.552-9.218-.828-20.706-.828z" opacity=".541"/>
                    <path d="M36.458 153.778c-5.53 0-10.494.138-14.182.276h-.85c0 .276-.142.69-.142.966 3.687.138 9.076.276 15.174.276 11.062 0 19.997-.276 19.997-.69.141-.414-8.935-.828-19.997-.828z" opacity=".557"/>
                    <path d="M36.458 153.778c-6.098 0-11.487.138-15.032.276 0 .276-.142.552-.142.966 3.545.138 8.934.276 15.174.276 10.637 0 19.288-.276 19.288-.69 0-.414-8.651-.828-19.288-.828z" opacity=".574"/>
                    <path d="M36.458 153.916c-6.24 0-11.629.138-15.032.276 0 .276-.142.552-.142.828 3.403.138 8.934.276 15.174.276 10.211 0 18.578-.276 18.578-.69 0-.414-8.225-.69-18.578-.69z" opacity=".59"/>
                    <path d="M36.458 153.916c-6.382 0-11.912.138-15.032.276 0 .276-.142.414-.142.69 3.12.138 8.792.276 15.174.276 9.786 0 17.87-.276 17.87-.69 0-.276-7.943-.552-17.87-.552z" opacity=".607"/>
                    <path d="M36.458 153.916c-6.523 0-12.196.138-15.032.276 0 .138-.142.414-.142.552 2.836.138 8.509.276 15.174.276 9.36 0 17.16-.276 17.16-.69 0-.138-7.658-.414-17.16-.414z" opacity=".623"/>
                    <path d="M36.458 153.916c-6.807 0-12.622.138-15.032.414 0 .138-.142.276-.142.414 2.41.276 8.225.414 15.174.414 9.077 0 16.31-.276 16.31-.552s-7.233-.69-16.31-.69z" opacity=".639"/>
                    <path d="M36.458 153.916c-7.232 0-13.33.138-15.032.414 0 .138 0 .138-.142.276 1.701.276 7.8.414 15.174.414 8.651 0 15.6-.276 15.6-.552.142-.276-6.949-.552-15.6-.552z" opacity=".656"/>
                    <path d="M21.567 154.606c0-.276 6.666-.552 14.891-.552 8.226 0 14.891.276 14.891.552s-6.665.552-14.89.552c-8.226 0-14.892-.276-14.892-.552z" opacity=".672"/>
                    <path d="M22.276 154.606c0-.276 6.382-.552 14.182-.552 7.8 0 14.182.276 14.182.552s-6.382.552-14.182.552c-7.8 0-14.182-.276-14.182-.552z" opacity=".689"/>
                    <path d="M22.985 154.606c0-.276 5.957-.552 13.473-.552 7.516 0 13.473.276 13.473.552s-5.957.552-13.473.552c-7.374-.138-13.473-.276-13.473-.552z" opacity=".705"/>
                    <path d="M23.694 154.606c0-.276 5.673-.552 12.764-.552 7.09 0 12.764.276 12.764.552s-5.673.414-12.764.414c-6.95 0-12.764-.138-12.764-.414z" opacity=".721"/>
                    <path d="M24.545 154.606c0-.276 5.39-.414 12.055-.414s12.054.138 12.054.414c0 .276-5.389.414-12.054.414-6.807 0-12.055-.276-12.055-.414z" opacity=".738"/>
                    <path d="M25.254 154.606c0-.276 5.106-.414 11.204-.414 6.24 0 11.204.138 11.204.414 0 .276-5.106.414-11.204.414-6.24 0-11.204-.276-11.204-.414z" opacity=".754"/>
                    <path d="M25.963 154.606c0-.276 4.68-.414 10.495-.414 5.815 0 10.495.138 10.495.414 0 .276-4.68.414-10.495.414-5.815-.138-10.495-.276-10.495-.414z" opacity=".77"/>
                    <path d="M26.673 154.606c0-.276 4.396-.414 9.785-.414 5.39 0 9.786.138 9.786.414 0 .138-4.397.414-9.786.414-5.389-.138-9.785-.276-9.785-.414z" opacity=".787"/>
                    <path d="M27.382 154.606c0-.138 4.113-.414 9.076-.414 4.964 0 9.077.138 9.077.414 0 .138-4.113.276-9.077.276-4.963 0-9.076-.138-9.076-.276z" opacity=".803"/>
                    <path d="M28.09 154.606c0-.138 3.688-.276 8.368-.276s8.367.138 8.367.276-3.687.276-8.367.276c-4.538 0-8.367-.138-8.367-.276z" opacity=".82"/>
                    <path d="M28.942 154.606c0-.138 3.404-.276 7.658-.276 4.255 0 7.658.138 7.658.276s-3.403.276-7.658.276c-4.255 0-7.658-.138-7.658-.276z" opacity=".836"/>
                    <path d="M29.65 154.606c0-.138 3.12-.276 6.808-.276 3.83 0 6.95.138 6.95.276s-3.12.276-6.95.276c-3.829-.138-6.807-.138-6.807-.276z" opacity=".853"/>
                    <path d="M30.36 154.606c0-.138 2.694-.276 6.098-.276s6.24.138 6.24.276-2.694.276-6.24.276c-3.404-.138-6.098-.138-6.098-.276z" opacity=".869"/>
                    <path d="M31.07 154.606c0-.138 2.41-.276 5.388-.276 2.979 0 5.39.138 5.39.276s-2.411.138-5.39.138c-2.978 0-5.389-.138-5.389-.138z" opacity=".885"/>
                    <path d="M31.778 154.606c0-.138 2.128-.138 4.68-.138 2.553 0 4.68.138 4.68.138s-2.127.138-4.68.138c-2.552 0-4.68-.138-4.68-.138z" opacity=".902"/>
                    <path d="M32.487 154.606c0-.138 1.844-.138 3.971-.138 2.27 0 3.971.138 3.971.138 0 .138-1.702.138-3.97.138-2.128 0-3.972-.138-3.972-.138z" opacity=".918"/>
                    <path d="M33.196 154.606c0-.138 1.419-.138 3.262-.138 1.844 0 3.262 0 3.262.138 0 0-1.418.138-3.262.138-1.702 0-3.262-.138-3.262-.138z" opacity=".934"/>
                    <path d="M33.905 154.606c0-.138 1.135-.138 2.553-.138s2.553 0 2.553.138c0 0-1.135.138-2.553.138-1.418-.138-2.553-.138-2.553-.138z" opacity=".951"/>
                    <path d="M34.756 154.605s.851-.137 1.844-.137c.993 0 1.844 0 1.844.137h-3.688z" opacity=".967"/>
                </g>
                <g opacity=".7">
                    <path d="M59.716 168.824c0-.276-.142-.69-.283-1.104-1.986 0-4.113-.138-6.382-.138-5.247-.138-11.062-.138-17.16 0-5.247.138-10.211.276-14.891.552.142.69.142 1.519.284 2.209 4.538-.138 9.502-.276 14.749-.414 6.098-.138 11.913-.138 17.16-.276H60c-.142-.277-.284-.553-.284-.829z" opacity=".016"/>
                    <path d="M59.716 168.825c0-.276-.142-.69-.283-1.104-2.127-.138-4.397-.138-6.666-.276-5.247-.138-10.92-.138-16.876 0-5.247.138-10.211.276-14.891.552.142.69.142 1.38.284 2.209 4.538-.139 9.502-.277 14.607-.415 5.956-.138 11.629-.138 16.876-.138h7.091c0-.276-.142-.552-.142-.828z" opacity=".033"/>
                    <path d="M59.716 168.825c0-.276-.142-.69-.283-1.104-2.127-.138-4.538-.138-6.95-.276-5.105-.138-10.777-.138-16.592 0-5.247.138-10.211.276-14.891.552.142.69.142 1.38.142 2.07 4.68-.138 9.502-.276 14.749-.414 5.956-.138 11.487-.138 16.593-.138H59.858c0-.138-.142-.414-.142-.69z" opacity=".049"/>
                    <path d="M59.716 168.825c0-.276-.142-.69-.283-1.104h-.142c-2.27 0-4.68-.138-7.091-.276-4.964-.138-10.495-.138-16.31 0-5.246.138-10.21.276-14.89.552 0 .69.142 1.38.142 2.07 4.538-.138 9.502-.276 14.749-.414 5.815-.138 11.203-.138 16.309-.138H59.858c0-.138-.142-.414-.142-.69z" opacity=".066"/>
                    <path d="M59.716 168.825c0-.276-.142-.552-.142-1.104h-.567c-2.127-.138-4.538-.138-6.949-.276-4.964-.138-10.353-.138-16.026 0-5.247.138-10.21.276-14.89.552 0 .69.141 1.38.141 2.07 4.539-.138 9.502-.276 14.75-.414 5.672-.138 11.061-.138 16.025-.276h7.8s-.142-.276-.142-.552z" opacity=".082"/>
                    <path d="M59.716 168.825c0-.276-.142-.552-.142-.966h-.992c-2.128-.138-4.397-.138-6.808-.138-4.822-.138-10.21-.138-15.742 0-5.247.138-10.21.276-14.89.552 0 .69.141 1.38.141 1.933 4.539-.138 9.502-.277 14.75-.415 5.53-.138 10.92-.138 15.741-.276h8.084c0-.276-.142-.414-.142-.69z" opacity=".098"/>
                    <path d="M59.716 168.824c0-.138-.142-.552-.142-.966-.425 0-.85 0-1.418-.138-2.127 0-4.396-.138-6.807-.138-4.68-.138-9.927-.138-15.458 0-5.247.138-10.211.276-14.891.552 0 .69.142 1.242.142 1.933 4.538-.138 9.502-.276 14.749-.414 5.53-.139 10.636-.139 15.458-.139h8.367c.142-.276 0-.414 0-.69z" opacity=".115"/>
                    <path d="M59.716 168.824c0-.276-.142-.69-.283-1.104-6.382 0-14.75-.414-23.542-.138-5.247.138-10.211.276-14.891.552 0 .69.142 1.242.142 1.933 4.538-.138 9.502-.277 14.749-.415 5.389-.138 10.495-.138 15.175-.138h8.792c0-.276-.142-.414-.142-.69z" opacity=".131"/>
                    <path d="M59.716 168.825c0-.138-.142-.552-.142-.966-6.381-.138-14.607-.414-23.541-.138-5.248.138-10.211.276-14.891.552 0 .552.141 1.242.141 1.794 4.539-.138 9.502-.276 14.75-.414 9.076-.276 17.16-.138 23.825-.276 0-.138-.142-.414-.142-.552z" opacity=".147"/>
                    <path d="M59.716 168.825c0-.138-.142-.552-.142-.966-6.381-.276-14.607-.414-23.683-.276-5.247.138-10.353.276-14.891.552 0 .552.142 1.242.142 1.795 4.538-.139 9.502-.277 14.749-.415 9.076-.276 17.302-.276 23.825-.276.142 0 0-.138 0-.414z" opacity=".164"/>
                    <path d="M59.716 168.825c0-.138-.142-.552-.142-.966-6.381-.276-14.607-.414-23.683-.276-5.39.138-10.353.276-14.891.552 0 .552.142 1.104.142 1.795 4.538-.139 9.502-.277 14.749-.415 9.218-.276 17.444-.276 23.825-.276.142 0 0-.138 0-.414z" opacity=".18"/>
                    <path d="M59.716 168.825c0-.138-.142-.552-.142-.828-6.381-.276-14.607-.414-23.683-.276-5.39.138-10.353.276-14.891.552 0 .552.142 1.104.142 1.656 4.538-.138 9.502-.276 14.749-.414 9.218-.138 17.444-.276 23.825-.276.142 0 0-.138 0-.414z" opacity=".197"/>
                    <path d="M59.716 168.825c0-.138-.142-.552-.142-.828-6.24-.276-14.465-.414-23.683-.276-5.39.138-10.353.276-14.891.552 0 .552.142 1.104.142 1.656 4.538-.138 9.36-.276 14.749-.414 9.218-.138 17.585-.276 23.825-.276.142 0 0-.276 0-.414z" opacity=".213"/>
                    <path d="M59.716 168.825c0-.138-.142-.552-.142-.828-6.24-.276-14.465-.414-23.683-.276-5.39.138-10.353.276-14.891.552 0 .552.142 1.104.142 1.656 4.538-.138 9.36-.276 14.749-.414 9.218-.138 17.585-.276 23.825-.276.142 0 0-.276 0-.414z" opacity=".23"/>
                    <path d="M59.716 168.825c0-.138-.142-.552-.142-.828-6.098-.276-14.465-.414-23.683-.276-5.39.138-10.353.276-14.891.552 0 .552.142 1.104.142 1.656 4.538-.138 9.36-.276 14.749-.414 9.36-.138 17.727-.138 23.825-.276.142-.138 0-.276 0-.414z" opacity=".246"/>
                    <path d="M59.716 168.825c0-.138-.142-.552-.142-.828h-.142c-5.956-.276-14.323-.414-23.4-.276-5.389.138-10.352.276-14.89.552 0 .552.141.966.141 1.518 4.539-.138 9.36-.276 14.75-.414 9.076-.138 17.443-.138 23.4-.276h.425c-.142 0-.142-.138-.142-.276z" opacity=".262"/>
                    <path d="M59.716 168.825c0-.138-.142-.552-.142-.69h-.709c-5.814-.276-14.04-.414-22.974-.276-5.39.138-10.353.276-14.891.552 0 .552.142.966.142 1.519 4.396-.138 9.36-.277 14.749-.415 8.934-.138 17.018-.138 22.833-.276h.992v-.414z" opacity=".279"/>
                    <path d="M59.716 168.825c0-.138-.142-.414-.142-.69-.425 0-.709 0-1.276-.138-5.673-.276-13.614-.414-22.407-.276-5.39.138-10.353.276-14.891.552 0 .552.142.966.142 1.518 4.396-.138 9.36-.276 14.749-.414 8.793-.138 16.593-.138 22.407-.276h1.418v-.276z" opacity=".295"/>
                    <path d="M59.716 168.825c0-.138-.142-.414-.142-.69-.567 0-1.134-.138-1.701-.138-5.531-.276-13.331-.414-21.84-.138-5.39.138-10.495.276-14.891.552 0 .552.141.966.141 1.38 4.397-.138 9.36-.276 14.75-.414 8.509-.138 16.309-.276 21.84-.276h1.985c-.142 0-.142-.138-.142-.276z" opacity=".311"/>
                    <path d="M59.716 168.825c0-.138-.142-.414-.142-.69-.709 0-1.418-.138-2.268-.138-5.531-.276-13.048-.414-21.415-.138-5.39.138-10.495.276-14.891.552 0 .414.142.966.142 1.38 4.396-.138 9.36-.276 14.749-.414 8.367-.138 15.884-.276 21.415-.276h2.41v-.276z" opacity=".328"/>
                    <path d="M59.716 168.825c0-.138-.142-.414-.142-.69-.85 0-1.843-.138-2.836-.138-5.389-.276-12.764-.276-20.847-.138-5.39.138-10.495.414-14.891.552 0 .414.142.828.142 1.38 4.396-.138 9.218-.276 14.749-.414 8.084-.138 15.458-.276 20.847-.276h2.978v-.276z" opacity=".344"/>
                    <path d="M59.716 168.825c0-.138-.142-.414-.142-.552-.992-.138-2.127-.138-3.403-.276-5.247-.276-12.338-.276-20.28-.138-3.971.138-7.658.276-11.204.414-1.276.138-2.41.138-3.687.276 0 .414.142.828.142 1.242 1.134 0 2.269-.138 3.545-.138 3.404-.138 7.233-.138 11.204-.276 7.942-.138 15.033-.276 20.28-.276h3.545v-.276z" opacity=".361"/>
                    <path d="M59.716 168.825c0-.138-.142-.414-.142-.552-1.134-.138-2.41-.138-3.828-.138-5.106-.276-12.055-.276-19.855-.138-5.39.138-10.636.276-14.891.552 0 .414.142.828.142 1.243 4.254-.139 9.36-.277 14.749-.415 7.658-.138 14.749-.138 19.855-.276 1.56 0 2.836 0 3.97-.276 0 .138 0 .138 0 0z" opacity=".377"/>
                    <path d="M59.716 168.825c0-.138-.142-.414-.142-.552-1.276-.138-2.694-.138-4.396-.276-4.963-.276-11.77-.276-19.287-.138-5.531.138-10.495.414-14.891.69 0 .414.142.828.142 1.242 4.254-.138 9.218-.276 14.749-.414 10.353-.276 19.145-.138 23.825-.552z" opacity=".393"/>
                    <path d="M59.716 168.825c0-.138-.142-.276-.142-.414-1.276-.138-2.836-.276-4.963-.276-4.822-.138-11.487-.276-18.72-.138-5.531.138-10.636.414-14.891.69 0 .414.142.828.142 1.105 4.254-.139 9.218-.277 14.749-.415 7.375-.138 13.898-.276 18.72-.276 2.127 0 3.687 0 5.105-.276 0 0 0 .138 0 0z" opacity=".41"/>
                    <path d="M59.716 168.825c0-.138-.142-.276-.142-.414-1.276-.138-3.12-.276-5.389-.276-4.68-.138-11.203-.276-18.294-.138-5.531.138-10.636.414-14.891.69 0 .414.142.69.142 1.105 4.113-.139 9.218-.277 14.749-.415 7.09-.138 13.614-.276 18.294-.276 2.411 0 4.255-.138 5.531-.276 0 0 0 .138 0 0z" opacity=".426"/>
                    <path d="M59.716 168.825c0-.138-.142-.276-.142-.414-1.276-.138-3.261-.276-5.956-.414-4.538-.138-10.778-.276-17.727-.138-5.531.138-10.636.414-14.891.69 0 .276.142.69.142 1.104 4.113-.138 9.218-.276 14.749-.414 6.949-.138 13.189-.276 17.727-.276 2.837 0 4.822 0 6.098-.138z" opacity=".443"/>
                    <path d="M59.716 168.549c-.992-.138-3.261-.276-6.523-.414-4.397-.138-10.495-.276-17.302-.138-5.531.138-10.778.276-14.891.69 0 .276.142.69.142.966 4.113-.138 9.218-.276 14.749-.414 6.665-.138 12.764-.276 17.16-.276 3.262 0 5.53-.138 6.523-.138.142 0 .142-.276.142-.276z" opacity=".459"/>
                    <path d="M52.625 168.135c-4.254-.138-10.21-.138-16.734-.138-5.673.138-10.778.414-14.75.69 0 .276 0 .69.142.966 4.113-.138 9.219-.276 14.75-.276 6.523-.138 12.48-.276 16.734-.276 4.255 0 6.95-.138 6.95-.276-.143-.276-2.695-.552-7.092-.69z" opacity=".475"/>
                    <path d="M52.2 168.135c-4.113-.138-9.927-.276-16.167-.138-5.673.138-10.778.414-14.75.69 0 .276 0 .552.142.966 3.971-.138 9.077-.276 14.75-.276 6.381-.138 12.054-.276 16.167-.276 4.113-.138 6.665-.138 6.665-.276-.142-.276-2.694-.552-6.807-.69z" opacity=".492"/>
                    <path d="M56.454 168.411c-1.134 0-2.694-.138-4.822-.276-3.97-.138-9.501-.138-15.741 0-5.673.138-10.92.414-14.75.69 0 .276 0 .552.142.828 3.971-.138 9.077-.138 14.75-.276 6.098-.138 11.629-.276 15.741-.276 3.971-.138 6.524-.138 6.524-.276-.142-.276-.85-.414-1.844-.414z" opacity=".508"/>
                    <path d="M55.745 168.411c-1.134 0-2.694-.138-4.538-.276-3.829-.138-9.218-.138-15.174 0-5.815.138-10.92.414-14.75.69 0 .276 0 .552.142.828 3.83-.138 9.077-.138 14.75-.276 5.956-.138 11.203-.276 15.174-.276 3.83-.138 6.24-.138 6.24-.276-.142-.276-.85-.414-1.843-.414z" opacity=".525"/>
                    <path d="M50.64 168.135c-3.829-.138-8.934-.138-14.607 0s-10.92.414-14.608.69h-.141c0 .276 0 .552.142.69h.141c3.83-.138 8.935-.138 14.608-.276 5.672-.138 10.92-.138 14.607-.276 3.687-.138 6.098-.138 6.098-.276-.142-.276-2.553-.414-6.24-.552z" opacity=".541"/>
                    <path d="M50.073 168.135c-3.546-.138-8.651-.138-14.182 0-5.531.138-10.495.414-14.182.69H21c0 .276 0 .552.142.69 3.687 0 8.934-.276 14.749-.276 5.53-.138 10.495-.276 14.182-.276 3.687-.138 5.814-.138 5.814-.276 0-.276-2.127-.414-5.814-.552z" opacity=".557"/>
                    <path d="M49.647 168.135c-3.545-.138-8.367-.138-13.614 0-5.39.138-10.07.276-13.615.552-.425 0-.85.138-1.134.138 0 .276 0 .414.142.69h1.134c3.546-.138 8.367-.138 13.615-.276 5.389-.138 10.069-.276 13.614-.276 3.546-.138 5.673-.138 5.673-.276-.284-.276-2.411-.414-5.815-.552z" opacity=".574"/>
                    <path d="M49.08 168.135c-3.404-.138-7.942-.138-13.047 0-5.106.138-9.786.276-13.19.552-.567 0-1.134.138-1.701.138 0 .138 0 .414.141.552h1.702c3.404 0 7.942-.138 13.047-.276 5.106-.138 9.786-.138 13.048-.276 3.403-.138 5.389-.138 5.389-.276s-1.986-.276-5.39-.414z" opacity=".59"/>
                    <path d="M48.513 168.273c-3.262-.138-7.658-.138-12.622 0-4.964.138-9.36.276-12.622.552-.85 0-1.56.138-2.269.138v.552h2.27c3.26-.138 7.657-.138 12.62-.276 4.965-.138 9.36-.138 12.623-.276 3.262-.138 5.247-.138 5.247-.276 0-.276-1.985-.414-5.247-.414z" opacity=".607"/>
                    <path d="M51.633 168.411c-.851 0-2.128-.138-3.688-.138-3.12-.138-7.374-.138-12.054 0-4.68.138-8.935.276-12.055.552-1.134.138-1.985.138-2.694.276v.414h2.694c3.12-.138 7.375-.138 12.055-.276s8.934-.138 12.054-.276c3.12-.138 4.964-.138 4.964-.276.142-.138-.284-.276-1.276-.276z" opacity=".623"/>
                    <path d="M51.066 168.411c-.852 0-1.986-.138-3.546-.138-2.978-.138-7.09-.138-11.63 0-4.537.138-8.65.276-11.628.552-1.418.138-2.411.138-3.262.276v.414h3.262c2.978 0 7.09-.138 11.629-.276 4.538-.138 8.509-.138 11.629-.276 2.978-.138 4.822-.138 4.822-.276s-.567-.276-1.276-.276z" opacity=".639"/>
                    <path d="M46.953 168.273c-2.837-.138-6.666-.138-11.062 0-4.397.138-8.226.276-11.062.414-1.702.138-2.978.276-3.687.276v.276h3.687c2.836-.138 6.665-.138 11.062-.276 4.254-.138 8.225-.138 11.062-.276 2.836-.138 4.538-.138 4.538-.276.142 0-1.702-.138-4.538-.138z" opacity=".656"/>
                    <path d="M46.527 168.273c-2.694 0-6.382-.138-10.494 0-4.113.138-7.8.276-10.495.414-2.553.138-3.97.276-4.254.414.283.138 1.843.138 4.254.138 2.695 0 6.382-.138 10.495-.138 4.112-.138 7.8-.138 10.494-.276 2.695-.138 4.397-.138 4.397-.276-.142-.138-1.702-.276-4.397-.276z" opacity=".672"/>
                    <path d="M21.851 169.101c0-.138 1.56-.276 4.113-.414 2.553-.138 6.098-.276 10.069-.414 3.97-.138 7.516-.138 10.069 0 2.553 0 4.113.138 4.113.276 0 0-.426.138-1.135.138-.709 0-1.702.138-2.978.138-2.553.138-6.098.138-10.07.276-3.97.138-7.515.138-10.068.138s-4.113 0-4.113-.138z" opacity=".689"/>
                    <path d="M22.56 169.101c0-.138 1.56-.276 3.971-.414 2.41-.138 5.815-.276 9.502-.414 3.687-.138 7.09-.138 9.502 0 2.41.138 3.97.138 3.97.276s-1.56.138-3.97.276c-2.411 0-5.815.138-9.502.276-3.688 0-7.091.138-9.502.138-2.553 0-3.97 0-3.97-.138z" opacity=".705"/>
                    <path d="M23.269 169.101c0-.138 1.418-.276 3.687-.414 2.27-.138 5.531-.276 8.935-.414 3.545-.138 6.665-.138 8.934 0 2.27 0 3.688.138 3.688.276s-1.419.138-3.688.276c-2.269 0-5.53.138-8.934.276-3.546 0-6.666.138-8.935.138s-3.687-.138-3.687-.138z" opacity=".721"/>
                    <path d="M23.978 169.101c0-.138 1.276-.276 3.545-.276 2.128-.138 5.106-.276 8.51-.276 3.261-.138 6.24-.138 8.509 0 1.134 0 1.985.138 2.552.138.568 0 .993.138.993.138 0 .138-1.276.138-3.545.276-2.128.138-5.106.138-8.51.276-3.261 0-6.24.138-8.508.138-2.27-.414-3.546-.414-3.546-.414z" opacity=".738"/>
                    <path d="M24.688 168.963c0-.138 1.276-.138 3.261-.276 1.986-.138 4.822-.138 7.942-.276h7.942c1.985 0 3.262.138 3.262.138 0 .138-1.277.138-3.262.276-1.986 0-4.822.138-7.942.138s-5.956.138-7.942.138c-1.985 0-3.262 0-3.262-.138z" opacity=".754"/>
                    <path d="M25.396 168.963c0-.138 1.135-.138 3.12-.276 1.844-.138 4.539-.138 7.517-.276h7.374c1.844 0 3.12.138 3.12.138 0 .138-1.134.138-3.12.138-1.843 0-4.538.138-7.374.138-2.978 0-5.531.138-7.517.138-1.843.138-3.12.138-3.12 0z" opacity=".77"/>
                    <path d="M26.105 168.963c0-.138 1.135-.138 2.837-.276 1.843-.138 4.254-.138 6.949-.276h6.949c1.702 0 2.836.138 2.836.138s-1.134.138-2.836.138c-1.844 0-4.255.138-6.95.138-2.694 0-5.105.138-6.948.138-1.702.138-2.837.138-2.837 0z" opacity=".787"/>
                    <path d="M26.956 168.963c0-.138.993-.138 2.695-.276 1.702 0 3.971-.138 6.382-.276h6.382c1.702 0 2.694.138 2.694.138s-.992.138-2.694.138-3.83.138-6.382.138c-2.553 0-4.822.138-6.382.138h-2.695z" opacity=".803"/>
                    <path d="M27.666 168.963c0-.138.992-.138 2.41-.276 1.56 0 3.546-.138 5.957-.276h5.956c1.56 0 2.411.138 2.411.138 0 .138-.993.138-2.41.138-1.56 0-3.546.138-5.957.138-2.27 0-4.397.138-5.957.138h-2.41z" opacity=".82"/>
                    <path d="M28.375 168.825c0-.138.85-.138 2.269-.276 1.418 0 3.261-.138 5.389-.138h5.389c1.418 0 2.269.138 2.269.138 0 .138-.851.138-2.27.138-1.417 0-3.261.138-5.388.138-2.128 0-3.971.138-5.39.138-1.418 0-2.268 0-2.268-.138z" opacity=".836"/>
                    <path d="M29.084 168.825s.709-.138 1.985-.138c1.276 0 2.978-.138 4.822-.138h4.822c1.276 0 1.985.138 1.985.138s-.71.138-1.985.138c-1.277 0-2.979.138-4.822.138-1.844 0-3.546.138-4.822.138-1.276-.138-1.985-.138-1.985-.276z" opacity=".853"/>
                    <path d="M29.793 168.825s.71-.138 1.844-.138c1.134 0 2.694-.138 4.396-.138h4.396c1.135 0 1.844 0 1.844.138 0 0-.71.138-1.844.138-1.134 0-2.694.138-4.396.138h-4.396c-1.135-.138-1.844-.138-1.844-.138z" opacity=".869"/>
                    <path d="M30.502 168.825s2.41-.276 5.389-.276c2.978-.138 5.39 0 5.39 0s-2.412.138-5.39.276h-5.389z" opacity=".885"/>
                    <path d="M31.21 168.825s2.128-.138 4.68-.276c2.554-.138 4.68 0 4.68 0s-2.126.138-4.68.138c-2.552.138-4.68.138-4.68.138z" opacity=".902"/>
                    <path d="M32.062 168.824s1.844-.137 3.97-.137h3.972s-1.844.137-3.971.137h-3.971z" opacity=".918"/>
                    <path d="M32.771 168.687s1.418-.138 3.262-.138h3.262s-1.419.138-3.262.138c-1.844.138-3.262 0-3.262 0z" opacity=".934"/>
                    <path d="M33.48 168.687s1.135-.138 2.553-.138h2.552s-1.134.138-2.552.138c-1.419.138-2.553 0-2.553 0z" opacity=".951"/>
                    <path d="M34.189 168.686s.85-.137 1.844-.137h1.843s-.85.137-1.843.137h-1.844z" opacity=".967"/>
                </g>
            </g>
        </g>
    </g>
    <defs>
        <linearGradient id="paint0_linear" x1="39.983" x2="39.983" y1="18.769" y2="102.126" gradientUnits="userSpaceOnUse">
            <stop/>
            <stop offset=".106" stop-color="#1A0D00"/>
            <stop offset=".305" stop-color="#442301"/>
            <stop offset=".499" stop-color="#653401"/>
            <stop offset=".683" stop-color="#7D4002"/>
            <stop offset=".855" stop-color="#8B4702"/>
            <stop offset="1" stop-color="#904A02"/>
        </linearGradient>
        <linearGradient id="paint1_linear" x1="24" x2="56" y1="117.744" y2="117.744" gradientUnits="userSpaceOnUse">
            <stop stop-color="#DBDBDB"/>
            <stop offset=".064" stop-color="#EBEBEB"/>
            <stop offset=".178" stop-color="#DADADA"/>
            <stop offset=".488" stop-color="#F6F6F6"/>
            <stop offset=".757" stop-color="#EFEFEF"/>
            <stop offset="1" stop-color="#DDD"/>
        </linearGradient>
        <linearGradient id="paint2_linear" x1="24" x2="56" y1="117.744" y2="117.744" gradientUnits="userSpaceOnUse">
            <stop stop-color="#DBDBDB"/>
            <stop offset=".064" stop-color="#EBEBEB"/>
            <stop offset=".178" stop-color="#DADADA"/>
            <stop offset=".488" stop-color="#F6F6F6"/>
            <stop offset=".757" stop-color="#EFEFEF"/>
            <stop offset="1" stop-color="#DDD"/>
        </linearGradient>
        <linearGradient id="paint3_linear" x1="23.009" x2="55.897" y1="89.974" y2="89.974" gradientUnits="userSpaceOnUse">
            <stop stop-color="#fff"/>
            <stop offset=".242" stop-color="#99979B"/>
            <stop offset=".4" stop-color="#BFBEC1"/>
            <stop offset=".616" stop-color="#BFBEC1"/>
            <stop offset=".668" stop-color="#898989"/>
            <stop offset=".737" stop-color="#727174"/>
            <stop offset=".802" stop-color="#5E5E60"/>
            <stop offset=".869" stop-color="#A6A6A6"/>
            <stop offset=".938" stop-color="#CDCDCD"/>
            <stop offset="1" stop-color="#FCFCFC"/>
        </linearGradient>
        <linearGradient id="paint4_linear" x1="24.153" x2="54.374" y1="151.76" y2="151.76" gradientUnits="userSpaceOnUse">
            <stop stop-color="#fff"/>
            <stop offset=".516" stop-color="#5C5960"/>
            <stop offset="1" stop-color="#858584"/>
        </linearGradient>
        <linearGradient id="paint5_linear" x1="24.597" x2="54.802" y1="165.223" y2="165.223" gradientUnits="userSpaceOnUse">
            <stop stop-color="#fff"/>
            <stop offset=".516" stop-color="#5C5960"/>
            <stop offset="1" stop-color="#858584"/>
        </linearGradient>
        <linearGradient id="paint6_linear" x1="24.028" x2="55.13" y1="144.548" y2="144.548" gradientUnits="userSpaceOnUse">
            <stop stop-color="#fff"/>
            <stop offset=".031" stop-color="#E3E2E4"/>
            <stop offset=".084" stop-color="#B9B7BA"/>
            <stop offset=".142" stop-color="#939196"/>
            <stop offset=".204" stop-color="#747177"/>
            <stop offset=".27" stop-color="#5A575E"/>
            <stop offset=".342" stop-color="#47434B"/>
            <stop offset=".424" stop-color="#39353D"/>
            <stop offset=".525" stop-color="#302C35"/>
            <stop offset=".695" stop-color="#2E2A33"/>
            <stop offset=".835" stop-color="#302C35"/>
            <stop offset=".885" stop-color="#36333B"/>
            <stop offset=".921" stop-color="#423E45"/>
            <stop offset=".95" stop-color="#524F54"/>
            <stop offset=".975" stop-color="#676568"/>
            <stop offset=".997" stop-color="gray"/>
            <stop offset="1" stop-color="#858584"/>
        </linearGradient>
        <linearGradient id="paint7_linear" x1="23.828" x2="53.56" y1="157.737" y2="157.737" gradientUnits="userSpaceOnUse">
            <stop stop-color="#fff"/>
            <stop offset=".031" stop-color="#E3E2E4"/>
            <stop offset=".084" stop-color="#B9B7BA"/>
            <stop offset=".142" stop-color="#939196"/>
            <stop offset=".204" stop-color="#747177"/>
            <stop offset=".27" stop-color="#5A575E"/>
            <stop offset=".342" stop-color="#47434B"/>
            <stop offset=".424" stop-color="#39353D"/>
            <stop offset=".525" stop-color="#302C35"/>
            <stop offset=".695" stop-color="#2E2A33"/>
            <stop offset=".835" stop-color="#302C35"/>
            <stop offset=".885" stop-color="#36333B"/>
            <stop offset=".921" stop-color="#423E45"/>
            <stop offset=".95" stop-color="#524F54"/>
            <stop offset=".975" stop-color="#676568"/>
            <stop offset=".997" stop-color="gray"/>
            <stop offset="1" stop-color="#858584"/>
        </linearGradient>
        <clipPath id="clip0">
            <path fill="#fff" d="M0 0H39V164H0z" transform="translate(21 8)"/>
        </clipPath>
    </defs>
</svg>
