<svg xmlns="http://www.w3.org/2000/svg" width="80" height="172" fill="none" viewBox="0 0 80 172">
    <g filter="url(#filter0_i)">
        <path fill="#E9A29E" d="M18 17c0-2.761 2.239-5 5-5h34c2.761 0 5 2.239 5 5v33H18V17z"/>
        <path fill="url(#paint0_linear)" d="M18 17c0-2.761 2.239-5 5-5h34c2.761 0 5 2.239 5 5v33H18V17z"/>
    </g>
    <path fill="url(#paint1_linear)" d="M18 50H62V88H18z"/>
    <path fill="url(#paint2_linear)" d="M18 88H62V172H18z"/>
    <g filter="url(#filter1_i)">
        <path fill="#E9A29E" d="M45.314 76.142c.78.781 2.047.781 2.828 0 .781-.78.781-2.047 0-2.828l-4.95-4.95 4.95-4.95c.781-.78.781-2.047 0-2.828-.78-.781-2.047-.781-2.828 0l-4.95 4.95-4.95-4.95c-.78-.781-2.047-.781-2.828 0-.781.78-.781 2.047 0 2.828l4.95 4.95-4.95 4.95c-.781.78-.781 2.047 0 2.828.78.781 2.047.781 2.828 0l4.95-4.95 4.95 4.95z"/>
        <path fill="#DD9795" d="M45.314 76.142c.78.781 2.047.781 2.828 0 .781-.78.781-2.047 0-2.828l-4.95-4.95 4.95-4.95c.781-.78.781-2.047 0-2.828-.78-.781-2.047-.781-2.828 0l-4.95 4.95-4.95-4.95c-.78-.781-2.047-.781-2.828 0-.781.78-.781 2.047 0 2.828l4.95 4.95-4.95 4.95c-.781.78-.781 2.047 0 2.828.78.781 2.047.781 2.828 0l4.95-4.95 4.95 4.95z"/>
    </g>
    <path fill="#D8D8D8" d="M18 88H62V90H18z"/>
    <defs>
        <linearGradient id="paint0_linear" x1="62" x2="18" y1="32" y2="32" gradientUnits="userSpaceOnUse">
            <stop stop-color="#D18784"/>
            <stop offset=".219" stop-color="#E9A29E"/>
            <stop offset=".523" stop-color="#E9A8A4"/>
            <stop offset=".863" stop-color="#CC7F7A"/>
            <stop offset=".946" stop-color="#D89490"/>
            <stop offset="1" stop-color="#D28B87"/>
        </linearGradient>
        <linearGradient id="paint1_linear" x1="18" x2="62" y1="69.864" y2="69.864" gradientUnits="userSpaceOnUse">
            <stop stop-color="#DBDBDB"/>
            <stop offset=".064" stop-color="#EBEBEB"/>
            <stop offset=".178" stop-color="#DADADA"/>
            <stop offset=".488" stop-color="#F6F6F6"/>
            <stop offset=".757" stop-color="#EFEFEF"/>
            <stop offset="1" stop-color="#DDD"/>
        </linearGradient>
        <linearGradient id="paint2_linear" x1="18" x2="62" y1="131.909" y2="131.909" gradientUnits="userSpaceOnUse">
            <stop stop-color="#DBDBDB"/>
            <stop offset=".064" stop-color="#EBEBEB"/>
            <stop offset=".178" stop-color="#DADADA"/>
            <stop offset=".488" stop-color="#F6F6F6"/>
            <stop offset=".757" stop-color="#EFEFEF"/>
            <stop offset="1" stop-color="#DDD"/>
        </linearGradient>
        <filter id="filter0_i" width="44" height="39" x="18" y="12" color-interpolation-filters="sRGB" filterUnits="userSpaceOnUse">
            <feFlood flood-opacity="0" result="BackgroundImageFix"/>
            <feBlend in="SourceGraphic" in2="BackgroundImageFix" result="shape"/>
            <feColorMatrix in="SourceAlpha" result="hardAlpha" values="0 0 0 0 0 0 0 0 0 0 0 0 0 0 0 0 0 0 127 0"/>
            <feOffset dy="1"/>
            <feGaussianBlur stdDeviation="1"/>
            <feComposite in2="hardAlpha" k2="-1" k3="1" operator="arithmetic"/>
            <feColorMatrix values="0 0 0 0 0.795833 0 0 0 0 0.506305 0 0 0 0 0.497396 0 0 0 1 0"/>
            <feBlend in2="shape" result="effect1_innerShadow"/>
        </filter>
        <filter id="filter1_i" width="16.728" height="17.728" x="32" y="60" color-interpolation-filters="sRGB" filterUnits="userSpaceOnUse">
            <feFlood flood-opacity="0" result="BackgroundImageFix"/>
            <feBlend in="SourceGraphic" in2="BackgroundImageFix" result="shape"/>
            <feColorMatrix in="SourceAlpha" result="hardAlpha" values="0 0 0 0 0 0 0 0 0 0 0 0 0 0 0 0 0 0 127 0"/>
            <feOffset dy="1"/>
            <feGaussianBlur stdDeviation=".5"/>
            <feComposite in2="hardAlpha" k2="-1" k3="1" operator="arithmetic"/>
            <feColorMatrix values="0 0 0 0 0.766667 0 0 0 0 0.447461 0 0 0 0 0.437639 0 0 0 1 0"/>
            <feBlend in2="shape" result="effect1_innerShadow"/>
        </filter>
    </defs>
</svg>
